<svg width="30" height="27" viewBox="0 0 30 27" fill="none" xmlns="http://www.w3.org/2000/svg">
<path d="M1.875 9.9375C1.875 8.3475 1.875 7.20938 1.95 6.31875C2.02125 5.43937 2.15625 4.8825 2.385 4.43437L0.71625 3.58312C0.33 4.33875 0.16125 5.17125 0.0787497 6.16687C-3.42261e-07 7.15125 0 8.37938 0 9.9375H1.875ZM1.875 12.1875V9.9375H0V12.1875H1.875ZM0 12.1875V21.5625H1.875V12.1875H0ZM0 21.5625V25.1513H1.875V21.5625H0ZM0 25.1513C0 26.7375 1.91813 27.5325 3.04125 26.4094L1.71562 25.0838C1.73065 25.0711 1.74877 25.0627 1.76812 25.0594C1.7844 25.0559 1.80133 25.0572 1.81687 25.0631C1.83254 25.0719 1.84585 25.0843 1.85565 25.0993C1.86545 25.1143 1.87144 25.1315 1.87313 25.1494L0 25.1513ZM3.04125 26.4094L6.67687 22.7738L5.35125 21.4481L1.71375 25.0856L3.04125 26.4094ZM20.0625 20.625H7.33875V22.5H20.0625V20.625ZM25.5656 20.115C25.1175 20.3438 24.5606 20.4788 23.6812 20.5519C22.7887 20.625 21.6525 20.625 20.0625 20.625V22.5C21.6225 22.5 22.8488 22.5 23.8331 22.4194C24.8288 22.3388 25.6613 22.17 26.4169 21.7856L25.5656 20.115ZM27.6131 18.0656C27.1638 18.9471 26.4471 19.6657 25.5656 20.115L26.4169 21.7856C27.6521 21.1564 28.6564 20.1521 29.2856 18.9169L27.6131 18.0656ZM28.125 12.5625C28.125 14.1525 28.125 15.2906 28.05 16.1813C27.9787 17.0606 27.8437 17.6175 27.6131 18.0656L29.2856 18.9169C29.67 18.1613 29.8388 17.3288 29.9194 16.3331C30 15.3488 30 14.1206 30 12.5625H28.125ZM28.125 9.9375V12.5625H30V9.9375H28.125ZM27.6131 4.43437C27.8419 4.8825 27.9788 5.43937 28.0519 6.31875C28.125 7.20938 28.125 8.3475 28.125 9.9375H30C30 8.3775 30 7.15125 29.9194 6.16687C29.8388 5.17125 29.67 4.33875 29.2856 3.58312L27.6131 4.43437ZM25.5656 2.385C26.4474 2.8348 27.1641 3.5522 27.6131 4.43437L29.2856 3.58312C28.6564 2.34787 27.6521 1.34362 26.4169 0.714375L25.5656 2.385ZM20.0625 1.875C21.6525 1.875 22.7887 1.875 23.6812 1.95C24.5606 2.02125 25.1175 2.15625 25.5656 2.385L26.4169 0.714375C25.6613 0.328125 24.8288 0.16125 23.8331 0.0787497C22.8488 -3.42261e-07 21.6206 0 20.0625 0V1.875ZM9.9375 1.875H20.0625V0H9.9375V1.875ZM4.43437 2.385C4.8825 2.15812 5.43937 2.02125 6.31875 1.94813C7.20937 1.875 8.3475 1.875 9.9375 1.875V0C8.3775 0 7.15125 4.1211e-07 6.16687 0.0806254C5.17125 0.16125 4.33875 0.33 3.58312 0.714375L4.43437 2.385ZM2.385 4.43437C2.83448 3.55191 3.55191 2.83448 4.43437 2.385L3.58312 0.714375C2.34816 1.34313 1.34581 2.34857 0.71625 3.58312L2.385 4.43437ZM6.67687 22.7738C6.85257 22.5985 7.09059 22.5001 7.33875 22.5V20.625C6.59308 20.6257 5.87819 20.9224 5.35125 21.45L6.67687 22.7738Z" fill="white"/>
<path d="M8.4375 8.4375H21.5625M8.4375 14.0625H17.8125" stroke="white" stroke-linecap="round" stroke-linejoin="round"/>
</svg>
