<svg width="36" height="37" viewBox="0 0 36 37" fill="none" xmlns="http://www.w3.org/2000/svg">
<path d="M18 8.36437L17.2465 9.11011C17.3441 9.21421 17.4612 9.29701 17.5906 9.35356C17.7201 9.41012 17.8593 9.43926 18 9.43926C18.1407 9.43926 18.2799 9.41012 18.4094 9.35356C18.5388 9.29701 18.6559 9.21421 18.7535 9.11011L18 8.36437ZM11.0247 24.0248C10.81 23.8434 10.534 23.757 10.2574 23.7847C9.98085 23.8125 9.72629 23.9519 9.54977 24.1726C9.37324 24.3932 9.28922 24.6768 9.31617 24.9611C9.34312 25.2453 9.47885 25.507 9.69349 25.6884L11.0247 24.0248ZM4.52372 19.7096C4.58969 19.8335 4.67876 19.9429 4.78584 20.0314C4.89293 20.12 5.01593 20.186 5.14784 20.2256C5.27974 20.2653 5.41795 20.2779 5.55459 20.2627C5.69123 20.2475 5.82361 20.2048 5.94419 20.137C6.06476 20.0692 6.17116 19.9776 6.25731 19.8676C6.34346 19.7575 6.40767 19.6311 6.44628 19.4955C6.48489 19.36 6.49715 19.2179 6.48234 19.0775C6.46754 18.937 6.42597 18.801 6.36 18.677L4.52372 19.7096ZM5.09302 13.5802C5.09302 10.4969 6.78837 7.90976 9.10326 6.82127C11.3526 5.76433 14.3749 6.04398 17.2465 9.11011L18.7535 7.62007C15.3488 3.98174 11.3916 3.38085 8.23256 4.86515C5.14326 6.3179 3 9.69092 3 13.5802H5.09302ZM13.1121 28.4419C13.8279 29.0213 14.5953 29.6379 15.3726 30.1055C16.1498 30.5715 17.0372 30.9516 18 30.9516V28.8004C17.5674 28.8004 17.0595 28.6283 16.4288 28.2483C15.7967 27.8697 15.1423 27.3477 14.4084 26.7525L13.1121 28.4419ZM22.8879 28.4419C24.8777 26.8285 27.4228 24.9814 29.4181 22.671C31.4512 20.3191 33 17.4036 33 13.5802H30.907C30.907 16.7324 29.6512 19.1603 27.854 21.2427C26.0191 23.3651 23.707 25.0388 21.5916 26.7525L22.8879 28.4419ZM33 13.5802C33 9.69092 30.8581 6.3179 27.7674 4.86515C24.6084 3.38085 20.654 3.98174 17.2465 7.61864L18.7535 9.11011C21.6251 6.04542 24.6474 5.76433 26.8967 6.82127C29.2116 7.90976 30.907 10.4955 30.907 13.5802H33ZM21.5916 26.7525C20.8577 27.3477 20.2033 27.8697 19.5712 28.2483C18.9405 28.6269 18.4326 28.8004 18 28.8004V30.9516C18.9628 30.9516 19.8502 30.5715 20.6274 30.1055C21.406 29.6379 22.1721 29.0213 22.8879 28.4419L21.5916 26.7525ZM14.4084 26.7525C13.2977 25.8533 12.1688 24.9929 11.0247 24.0248L9.69349 25.6884C10.8516 26.6679 12.0767 27.6029 13.1121 28.4419L14.4084 26.7525ZM6.36 18.6785C5.51945 17.1188 5.08316 15.3632 5.09302 13.5802H3C3 15.9293 3.58605 17.9471 4.52372 19.7096L6.36 18.6785Z" fill="#F24E1E"/>
<path d="M3 14.0862C3 21.5833 9.03 25.5778 13.443 29.1544C15 30.4155 16.5 31.6041 18 31.6041C19.5 31.6041 21 30.4171 22.557 29.1529C26.9715 25.5793 33 21.5833 33 14.0877C33 6.59059 24.75 1.27339 18 8.48222C11.25 1.27184 3 6.58905 3 14.0862Z" fill="#F24E1E"/>
</svg>
