<svg width="30" height="27" viewBox="0 0 30 27" fill="none" xmlns="http://www.w3.org/2000/svg">
<path d="M15 4.13833L14.2465 4.86392C14.3441 4.9652 14.4612 5.04576 14.5906 5.10079C14.7201 5.15582 14.8593 5.18418 15 5.18418C15.1407 5.18418 15.2799 5.15582 15.4094 5.10079C15.5388 5.04576 15.6559 4.9652 15.7535 4.86392L15 4.13833ZM8.02465 19.3755C7.81001 19.199 7.53404 19.115 7.25744 19.1419C6.98085 19.1689 6.72629 19.3046 6.54977 19.5193C6.37324 19.7339 6.28922 20.0099 6.31617 20.2865C6.34312 20.5631 6.47885 20.8176 6.69349 20.9941L8.02465 19.3755ZM1.52372 15.1769C1.58969 15.2975 1.67876 15.4039 1.78584 15.4901C1.89293 15.5762 2.01593 15.6404 2.14784 15.679C2.27974 15.7176 2.41795 15.7299 2.55459 15.7151C2.69123 15.7003 2.82361 15.6587 2.94419 15.5928C3.06476 15.5268 3.17116 15.4377 3.25731 15.3306C3.34346 15.2235 3.40767 15.1005 3.44628 14.9686C3.48489 14.8367 3.49715 14.6985 3.48234 14.5619C3.46754 14.4252 3.42597 14.2929 3.36 14.1723L1.52372 15.1769ZM2.09302 9.21322C2.09302 6.21322 3.78837 3.69601 6.10326 2.63694C8.35256 1.60857 11.3749 1.88066 14.2465 4.86392L15.7535 3.41415C12.3488 -0.125851 8.39163 -0.710503 5.23256 0.733683C2.14326 2.14717 0 5.42903 0 9.21322H2.09302ZM10.1121 23.6732C10.8279 24.2369 11.5953 24.8369 12.3726 25.2918C13.1498 25.7453 14.0372 26.1151 15 26.1151V24.0221C14.5674 24.0221 14.0595 23.8546 13.4288 23.4848C12.7967 23.1165 12.1423 22.6086 11.4084 22.0295L10.1121 23.6732ZM19.8879 23.6732C21.8777 22.1035 24.4228 20.3062 26.4181 18.0583C28.4512 15.77 30 12.9332 30 9.21322H27.907C27.907 12.2802 26.6512 14.6425 24.854 16.6686C23.0191 18.7337 20.707 20.3621 18.5916 22.0295L19.8879 23.6732ZM30 9.21322C30 5.42903 27.8581 2.14717 24.7674 0.733683C21.6084 -0.710503 17.654 -0.125851 14.2465 3.41275L15.7535 4.86392C18.6251 1.88206 21.6474 1.60857 23.8967 2.63694C26.2116 3.69601 27.907 6.21182 27.907 9.21322H30ZM18.5916 22.0295C17.8577 22.6086 17.2033 23.1165 16.5712 23.4848C15.9405 23.8532 15.4326 24.0221 15 24.0221V26.1151C15.9628 26.1151 16.8502 25.7453 17.6274 25.2918C18.406 24.8369 19.1721 24.2369 19.8879 23.6732L18.5916 22.0295ZM11.4084 22.0295C10.2977 21.1546 9.16884 20.3174 8.02465 19.3755L6.69349 20.9941C7.85163 21.9472 9.07674 22.8569 10.1121 23.6732L11.4084 22.0295ZM3.36 14.1737C2.51945 12.6561 2.08316 10.948 2.09302 9.21322H0C0 11.4988 0.586047 13.4621 1.52372 15.1769L3.36 14.1737Z" fill="white"/>
</svg>
