<svg width="24" height="24" viewBox="0 0 24 24" fill="none" xmlns="http://www.w3.org/2000/svg">
<path fill-rule="evenodd" clip-rule="evenodd" d="M18.6711 3.20791C18.9576 3.16014 19.251 3.17532 19.531 3.25241C19.811 3.3295 20.0708 3.46665 20.2925 3.65431C20.5141 3.84198 20.6922 4.07566 20.8144 4.33912C20.9366 4.60258 21 4.88949 21.0001 5.17991V16.9999C20.9999 17.8804 20.7092 18.7362 20.173 19.4347C19.6369 20.1331 18.8853 20.6351 18.0347 20.8629C17.1842 21.0906 16.2823 21.0314 15.4688 20.6943C14.6554 20.3572 13.9759 19.7612 13.5358 18.9986C13.0956 18.236 12.9194 17.3495 13.0344 16.4766C13.1494 15.6036 13.5492 14.793 14.1718 14.1704C14.7945 13.5479 15.6051 13.1481 16.4781 13.0332C17.3511 12.9183 18.2376 13.0947 19.0001 13.5349V9.17991L9.00009 10.8469V17.9999C9.00009 18.0599 8.99509 18.1169 8.98509 18.1739C9.05688 18.9429 8.87231 19.714 8.46014 20.3672C8.04796 21.0203 7.43133 21.5188 6.70631 21.7849C5.98129 22.051 5.18861 22.0699 4.45176 21.8385C3.7149 21.6072 3.07527 21.1386 2.63251 20.5058C2.18974 19.873 1.96872 19.1115 2.00387 18.34C2.03902 17.5684 2.32838 16.8302 2.82685 16.2403C3.32532 15.6504 4.00491 15.2419 4.75975 15.0785C5.51459 14.9151 6.30228 15.0059 7.00009 15.3369V6.84691C7.00003 6.37347 7.16793 5.91536 7.47391 5.55409C7.77988 5.19281 8.2041 4.95179 8.67109 4.87391L18.6711 3.20791ZM9.00009 8.81991L19.0001 7.15291V5.17991L9.00009 6.84691V8.81991Z" fill="white"/>
</svg>
