<svg width="27" height="30" viewBox="0 0 27 30" fill="none" xmlns="http://www.w3.org/2000/svg">
<path fill-rule="evenodd" clip-rule="evenodd" d="M7.659 0.8295C7.78349 0.580379 7.97487 0.370832 8.21171 0.224329C8.44855 0.0778247 8.72151 0.000148723 9 0H18C18.2785 0.000148723 18.5514 0.0778247 18.7883 0.224329C19.0251 0.370832 19.2165 0.580379 19.341 0.8295L21.927 6H25.5C25.8978 6 26.2794 6.15804 26.5607 6.43934C26.842 6.72064 27 7.10217 27 7.5C27 7.89782 26.842 8.27936 26.5607 8.56066C26.2794 8.84196 25.8978 9 25.5 9H24V25.5C24 26.6935 23.5259 27.8381 22.682 28.682C21.8381 29.5259 20.6935 30 19.5 30H7.5C6.30653 30 5.16193 29.5259 4.31802 28.682C3.47411 27.8381 3 26.6935 3 25.5V9H1.5C1.10218 9 0.720644 8.84196 0.43934 8.56066C0.158035 8.27936 0 7.89782 0 7.5C0 7.10217 0.158035 6.72064 0.43934 6.43934C0.720644 6.15804 1.10218 6 1.5 6H5.073L7.659 0.8295ZM17.073 3L18.573 6H8.427L9.927 3H17.073ZM12 13.5C12 13.1022 11.842 12.7206 11.5607 12.4393C11.2794 12.158 10.8978 12 10.5 12C10.1022 12 9.72064 12.158 9.43934 12.4393C9.15804 12.7206 9 13.1022 9 13.5V22.5C9 22.8978 9.15804 23.2794 9.43934 23.5607C9.72064 23.842 10.1022 24 10.5 24C10.8978 24 11.2794 23.842 11.5607 23.5607C11.842 23.2794 12 22.8978 12 22.5V13.5ZM18 13.5C18 13.1022 17.842 12.7206 17.5607 12.4393C17.2794 12.158 16.8978 12 16.5 12C16.1022 12 15.7206 12.158 15.4393 12.4393C15.158 12.7206 15 13.1022 15 13.5V22.5C15 22.8978 15.158 23.2794 15.4393 23.5607C15.7206 23.842 16.1022 24 16.5 24C16.8978 24 17.2794 23.842 17.5607 23.5607C17.842 23.2794 18 22.8978 18 22.5V13.5Z" fill="white"/>
</svg>
