<svg width="18" height="22" viewBox="0 0 18 22" fill="none" xmlns="http://www.w3.org/2000/svg">
<path fill-rule="evenodd" clip-rule="evenodd" d="M9.00006 0.25C7.74028 0.25 6.5321 0.750445 5.6413 1.64124C4.7505 2.53204 4.25006 3.74022 4.25006 5C4.25006 6.25978 4.7505 7.46796 5.6413 8.35876C6.5321 9.24955 7.74028 9.75 9.00006 9.75C10.2598 9.75 11.468 9.24955 12.3588 8.35876C13.2496 7.46796 13.7501 6.25978 13.7501 5C13.7501 3.74022 13.2496 2.53204 12.3588 1.64124C11.468 0.750445 10.2598 0.25 9.00006 0.25ZM5.75006 5C5.75006 4.13805 6.09247 3.3114 6.70196 2.7019C7.31145 2.09241 8.1381 1.75 9.00006 1.75C9.86201 1.75 10.6887 2.09241 11.2982 2.7019C11.9076 3.3114 12.2501 4.13805 12.2501 5C12.2501 5.86195 11.9076 6.6886 11.2982 7.2981C10.6887 7.90759 9.86201 8.25 9.00006 8.25C8.1381 8.25 7.31145 7.90759 6.70196 7.2981C6.09247 6.6886 5.75006 5.86195 5.75006 5ZM9.00006 11.25C6.68706 11.25 4.55506 11.776 2.97606 12.664C1.42006 13.54 0.250056 14.866 0.250056 16.5V16.602C0.249056 17.764 0.248056 19.222 1.52706 20.264C2.15606 20.776 3.03706 21.141 4.22706 21.381C5.41906 21.623 6.97406 21.75 9.00006 21.75C11.0261 21.75 12.5801 21.623 13.7741 21.381C14.9641 21.141 15.8441 20.776 16.4741 20.264C17.7531 19.222 17.7511 17.764 17.7501 16.602V16.5C17.7501 14.866 16.5801 13.54 15.0251 12.664C13.4451 11.776 11.3141 11.25 9.00006 11.25ZM1.75006 16.5C1.75006 15.649 2.37206 14.725 3.71106 13.972C5.02706 13.232 6.89506 12.75 9.00106 12.75C11.1051 12.75 12.9731 13.232 14.2891 13.972C15.6291 14.725 16.2501 15.649 16.2501 16.5C16.2501 17.808 16.2101 18.544 15.5261 19.1C15.1561 19.402 14.5361 19.697 13.4761 19.911C12.4191 20.125 10.9741 20.25 9.00006 20.25C7.02606 20.25 5.58006 20.125 4.52406 19.911C3.46406 19.697 2.84406 19.402 2.47406 19.101C1.79006 18.544 1.75006 17.808 1.75006 16.5Z" fill="white"/>
</svg>
