<svg width="983" height="163" viewBox="0 0 983 163" fill="none" xmlns="http://www.w3.org/2000/svg">
<path fill-rule="evenodd" clip-rule="evenodd" d="M711.5 5L981.95 5V0L711.5 0C710.119 0 709 1.11929 709 2.5C709 3.88071 710.119 5 711.5 5Z" fill="white"/>
<path fill-rule="evenodd" clip-rule="evenodd" d="M982.998 133.179L983.006 3.23022L978.006 3.22998L977.998 133.179C977.998 134.56 979.117 135.679 980.498 135.679C981.878 135.679 982.998 134.56 982.998 133.179Z" fill="white"/>
<path d="M909.441 39.1406C909.347 38.5234 909.132 37.9883 908.796 37.5352C908.46 37.0742 908.03 36.7227 907.507 36.4805C906.984 36.2383 906.394 36.1172 905.737 36.1172C904.855 36.1172 904.081 36.3398 903.417 36.7852C902.761 37.2227 902.253 37.8633 901.894 38.707C901.534 39.543 901.355 40.5469 901.355 41.7188C901.355 42.9141 901.534 43.9336 901.894 44.7773C902.253 45.6133 902.761 46.2461 903.417 46.6758C904.073 47.1055 904.839 47.3203 905.714 47.3203C906.691 47.3203 907.511 47.0625 908.175 46.5469C908.847 46.0312 909.269 45.3203 909.441 44.4141L913.003 44.4375C912.87 45.5078 912.491 46.5 911.866 47.4141C911.241 48.3281 910.398 49.0625 909.335 49.6172C908.273 50.1641 907.05 50.4375 905.667 50.4375C904.144 50.4375 902.784 50.0938 901.589 49.4062C900.394 48.7109 899.456 47.707 898.777 46.3945C898.105 45.082 897.769 43.5234 897.769 41.7188C897.769 39.9219 898.109 38.3672 898.788 37.0547C899.476 35.7344 900.417 34.7305 901.612 34.043C902.816 33.3477 904.167 33 905.667 33C906.972 33 908.152 33.2422 909.206 33.7266C910.261 34.2109 911.116 34.918 911.773 35.8477C912.437 36.7695 912.847 37.8672 913.003 39.1406H909.441Z" fill="white"/>
<path d="M884.564 33.2344H895.955V36.1406H888.08V40.2656H895.369V43.1719H888.08V47.2969H895.978V50.2031H884.564V33.2344Z" fill="white"/>
<path d="M870 33.2344H876.656C877.93 33.2344 879.02 33.4609 879.926 33.9141C880.84 34.3672 881.535 35.0117 882.012 35.8477C882.488 36.6758 882.727 37.6484 882.727 38.7656C882.727 39.9219 882.469 40.9141 881.953 41.7422C881.437 42.5703 880.695 43.1914 879.727 43.6055L883.336 50.2031H879.445L876.199 44.1797H873.516V50.2031H870V33.2344ZM876 41.3203C878.062 41.3203 879.094 40.4688 879.094 38.7656C879.094 37.8984 878.836 37.2422 878.32 36.7969C877.805 36.3438 877.031 36.1172 876 36.1172H873.516V41.3203H876Z" fill="white"/>
<path d="M949.57 42C949.57 47.5228 945.093 52 939.57 52C934.047 52 929.57 47.5228 929.57 42C929.57 36.4772 934.047 32 939.57 32C945.093 32 949.57 36.4772 949.57 42Z" fill="#ED4B62"/>
<path d="M116.298 125.4C116.298 124.088 116.73 122.984 117.594 122.088C118.458 121.192 119.626 120.744 121.098 120.744C122.538 120.744 123.674 121.208 124.506 122.136C125.338 123.032 125.754 124.152 125.754 125.496V137.112L126.522 137.352C126.778 136.296 127.226 135.464 127.866 134.856C128.506 134.216 129.322 133.896 130.314 133.896C131.434 133.896 132.362 134.328 133.098 135.192C133.834 136.024 134.202 137.144 134.202 138.552C134.202 140.024 133.802 141.176 133.002 142.008C132.202 142.808 131.306 143.208 130.314 143.208C129.482 143.208 128.778 142.984 128.202 142.536C127.658 142.088 127.226 141.56 126.906 140.952C126.682 140.568 126.426 140.44 126.138 140.568C125.882 140.664 125.754 140.936 125.754 141.384V157.848C125.754 159.064 125.322 160.088 124.458 160.92C123.594 161.752 122.474 162.168 121.098 162.168C119.722 162.168 118.57 161.752 117.642 160.92C116.746 160.088 116.298 159.064 116.298 157.848V125.4ZM104.394 155.88C101.258 155.88 98.746 155.112 96.858 153.576C95.002 152.04 93.914 149.64 93.594 146.376C93.37 143.944 93.242 141.576 93.21 139.272C93.178 136.936 93.242 134.792 93.402 132.84C93.562 130.888 93.802 129.256 94.122 127.944C94.922 124.808 96.794 123.24 99.738 123.24C101.37 123.24 102.634 123.768 103.53 124.824C104.426 125.848 104.874 127.016 104.874 128.328C104.874 130.696 103.738 132.632 101.466 134.136C100.538 134.744 99.674 135.448 98.874 136.248C98.074 137.048 97.674 138.152 97.674 139.56C97.674 140.776 98.074 141.768 98.874 142.536C99.674 143.304 100.81 143.688 102.282 143.688H108.858C110.906 143.688 112.442 144.232 113.466 145.32C114.522 146.376 115.05 147.88 115.05 149.832C115.05 153.864 113.002 155.88 108.906 155.88H104.394Z" fill="white"/>
<path d="M65.4285 125.4C65.4285 124.088 65.8605 122.984 66.7245 122.088C67.5885 121.192 68.7565 120.744 70.2285 120.744C71.6685 120.744 72.8045 121.208 73.6365 122.136C74.4685 123.032 74.8845 124.152 74.8845 125.496V132.984L75.7485 133.272C75.9725 132.216 76.4045 131.368 77.0445 130.728C77.6845 130.056 78.5485 129.72 79.6365 129.72C80.7885 129.72 81.7485 130.136 82.5165 130.968C83.2845 131.8 83.6685 132.904 83.6685 134.28C83.6685 135.752 83.2525 136.888 82.4205 137.688C81.5885 138.488 80.6605 138.888 79.6365 138.888C78.7725 138.888 78.0365 138.664 77.4285 138.216C76.8525 137.768 76.4045 137.24 76.0845 136.632C75.8605 136.248 75.6045 136.104 75.3165 136.2C75.0285 136.296 74.8845 136.568 74.8845 137.016V143.4L75.7005 143.688C75.9565 142.664 76.4045 141.816 77.0445 141.144C77.6845 140.472 78.5485 140.136 79.6365 140.136C80.7885 140.136 81.7485 140.552 82.5165 141.384C83.2845 142.184 83.6685 143.288 83.6685 144.696C83.6685 146.168 83.2525 147.304 82.4205 148.104C81.5885 148.904 80.6605 149.304 79.6365 149.304C78.7725 149.304 78.0365 149.08 77.4285 148.632C76.8525 148.184 76.4045 147.656 76.0845 147.048C75.8605 146.664 75.6045 146.52 75.3165 146.616C75.0285 146.712 74.8845 147 74.8845 147.48V157.848C74.8845 159.064 74.4525 160.088 73.5885 160.92C72.7245 161.752 71.6045 162.168 70.2285 162.168C68.8525 162.168 67.7005 161.752 66.7725 160.92C65.8765 160.088 65.4285 159.064 65.4285 157.848V125.4ZM42.1965 144.456C42.1645 142.536 42.4045 140.952 42.9165 139.704C43.4605 138.456 44.1005 137.512 44.8365 136.872C45.6045 136.2 46.3085 135.768 46.9485 135.576L46.4685 134.52C45.6685 134.52 44.9005 134.184 44.1645 133.512C43.4605 132.808 43.0605 131.832 42.9645 130.584C42.8365 128.6 43.5565 126.984 45.1245 125.736C46.6925 124.456 49.0765 123.816 52.2765 123.816C55.8605 123.816 58.7405 125.08 60.9165 127.608C63.0925 130.104 64.1805 134.008 64.1805 139.32C64.1805 142.968 63.7005 145.944 62.7405 148.248C61.8125 150.52 60.5005 152.2 58.8045 153.288C57.1085 154.344 55.1245 154.872 52.8525 154.872C51.1245 154.872 49.4605 154.504 47.8605 153.768C46.2605 153.032 44.9325 151.896 43.8765 150.36C42.8525 148.824 42.2925 146.856 42.1965 144.456ZM51.8445 144.024C53.0605 144.024 53.9725 143.64 54.5805 142.872C55.1885 142.072 55.4925 140.68 55.4925 138.696C55.4925 136.616 55.1725 135.192 54.5325 134.424C53.8925 133.656 52.9805 133.272 51.7965 133.272C50.5165 133.272 49.5725 133.656 48.9645 134.424C48.3565 135.192 48.0525 136.616 48.0525 138.696C48.0525 140.648 48.3565 142.024 48.9645 142.824C49.6045 143.624 50.5645 144.024 51.8445 144.024Z" fill="white"/>
<path d="M24.048 125.4C24.048 124.088 24.48 122.984 25.344 122.088C26.208 121.192 27.376 120.744 28.848 120.744C30.288 120.744 31.424 121.208 32.256 122.136C33.088 123.032 33.504 124.152 33.504 125.496V137.112L34.272 137.352C34.528 136.296 34.976 135.464 35.616 134.856C36.256 134.216 37.072 133.896 38.064 133.896C39.184 133.896 40.112 134.328 40.848 135.192C41.584 136.024 41.952 137.144 41.952 138.552C41.952 140.024 41.552 141.176 40.752 142.008C39.952 142.808 39.056 143.208 38.064 143.208C37.232 143.208 36.528 142.984 35.952 142.536C35.408 142.088 34.976 141.56 34.656 140.952C34.432 140.568 34.176 140.44 33.888 140.568C33.632 140.664 33.504 140.936 33.504 141.384V157.848C33.504 159.064 33.072 160.088 32.208 160.92C31.344 161.752 30.224 162.168 28.848 162.168C27.472 162.168 26.32 161.752 25.392 160.92C24.496 160.088 24.048 159.064 24.048 157.848V125.4ZM12.144 155.88C9.008 155.88 6.496 155.112 4.608 153.576C2.752 152.04 1.664 149.64 1.344 146.376C1.12 143.944 0.991996 141.576 0.959996 139.272C0.927996 136.936 0.991996 134.792 1.152 132.84C1.312 130.888 1.552 129.256 1.872 127.944C2.672 124.808 4.544 123.24 7.488 123.24C9.12 123.24 10.384 123.768 11.28 124.824C12.176 125.848 12.624 127.016 12.624 128.328C12.624 130.696 11.488 132.632 9.216 134.136C8.288 134.744 7.424 135.448 6.624 136.248C5.824 137.048 5.424 138.152 5.424 139.56C5.424 140.776 5.824 141.768 6.624 142.536C7.424 143.304 8.56 143.688 10.032 143.688H16.608C18.656 143.688 20.192 144.232 21.216 145.32C22.272 146.376 22.8 147.88 22.8 149.832C22.8 153.864 20.752 155.88 16.656 155.88H12.144Z" fill="white"/>
<path d="M324.611 63.9441C324.323 62.5041 324.418 61.3361 324.898 60.4401C325.41 59.5121 326.098 58.8401 326.962 58.4241C327.858 57.9761 328.739 57.7521 329.603 57.7521V57.6561C328.771 57.4641 328.13 57.0961 327.682 56.5521C327.234 55.9761 327.059 55.2081 327.155 54.2481C327.219 53.6721 327.394 53.1441 327.682 52.6641C328.002 52.1841 328.547 51.7841 329.315 51.4641C330.115 51.1441 331.283 50.9041 332.819 50.7441C334.387 50.5521 336.45 50.4561 339.01 50.4561C349.442 50.4561 354.659 53.6881 354.659 60.1521C354.659 62.4881 354.114 64.2961 353.026 65.5761C351.938 66.8241 350.243 67.7041 347.939 68.2161C345.667 68.6961 342.723 68.9361 339.107 68.9361C336.483 68.9361 334.131 68.8401 332.051 68.6481C329.971 68.4241 328.274 67.9601 326.962 67.2561C325.682 66.5201 324.899 65.4161 324.611 63.9441ZM332.099 59.1441C332.099 59.4321 332.242 59.6721 332.53 59.8641C332.818 60.0241 333.458 60.1361 334.451 60.2001C335.474 60.2641 337.043 60.2961 339.155 60.2961C340.979 60.2961 342.354 60.2641 343.283 60.2001C344.211 60.1041 344.835 59.9761 345.155 59.8161C345.475 59.6241 345.634 59.4001 345.634 59.1441C345.634 58.8561 345.475 58.6321 345.155 58.4721C344.835 58.3121 344.211 58.2001 343.283 58.1361C342.354 58.0401 340.979 57.9921 339.155 57.9921C337.043 57.9921 335.474 58.0401 334.451 58.1361C333.458 58.2001 332.818 58.3121 332.53 58.4721C332.242 58.6321 332.099 58.8561 332.099 59.1441ZM332.866 92.0721C330.082 92.0721 327.89 91.3841 326.29 90.0081C324.722 88.6641 323.939 86.8721 323.939 84.6321C323.939 83.4801 324.114 82.5361 324.466 81.8001C324.85 81.0641 325.218 80.5361 325.57 80.2161C325.954 79.8641 326.147 79.6881 326.147 79.6881L325.81 79.0641H323.987C322.803 79.0641 321.778 78.6801 320.914 77.9121C320.082 77.1121 319.667 76.0081 319.667 74.6001C319.667 73.2561 320.098 72.2161 320.962 71.4801C321.826 70.7121 322.866 70.3281 324.082 70.3281H354.659C355.907 70.3281 356.93 70.7121 357.73 71.4801C358.562 72.2481 358.979 73.2881 358.979 74.6001C358.979 75.9441 358.562 77.0321 357.73 77.8641C356.93 78.6641 355.907 79.0641 354.659 79.0641H330.227C329.875 79.0641 329.555 79.1601 329.267 79.3521C328.979 79.5441 328.93 79.8641 329.122 80.3121C329.474 81.1441 329.891 81.6881 330.371 81.9441C330.883 82.1681 331.634 82.2801 332.626 82.2801H350.29C352.178 82.2801 353.539 82.7441 354.371 83.6721C355.203 84.5681 355.618 85.7041 355.618 87.0801C355.618 88.4881 355.203 89.6721 354.371 90.6321C353.539 91.5921 352.178 92.0721 350.29 92.0721H332.866Z" fill="white"/>
<path d="M291.342 92.456C289.422 92.456 287.774 92.248 286.398 91.832C285.022 91.448 283.998 90.68 283.326 89.528C282.654 88.408 282.382 86.776 282.51 84.632C282.638 82.744 282.99 81.368 283.566 80.504C284.174 79.64 285.086 79.16 286.302 79.064C285.694 78.392 285.39 77.592 285.39 76.664C285.39 76.216 285.454 75.816 285.582 75.464C285.102 75.464 284.638 75.464 284.19 75.464C283.774 75.432 283.374 75.4 282.99 75.368C281.902 75.208 280.942 74.84 280.11 74.264C279.278 73.656 278.878 72.632 278.91 71.192C278.942 69.816 279.374 68.84 280.206 68.264C281.07 67.688 282.046 67.416 283.134 67.448C284.926 67.48 286.702 67.512 288.462 67.544C290.254 67.576 291.886 67.576 293.358 67.544C293.326 66.872 293.406 66.328 293.598 65.912C293.822 65.496 294.078 65.128 294.366 64.808H284.19C283.422 64.808 282.846 64.616 282.462 64.232C282.11 63.848 281.934 63.4 281.934 62.888C281.934 62.312 282.11 61.848 282.462 61.496C282.814 61.112 283.358 60.92 284.094 60.92H295.71C295.678 60.376 295.534 59.992 295.278 59.768C295.054 59.512 294.638 59.384 294.03 59.384H284.286C283.23 59.384 282.35 58.984 281.646 58.184C280.942 57.384 280.59 56.328 280.59 55.016C280.59 53.704 280.942 52.712 281.646 52.04C282.35 51.336 283.23 50.984 284.286 50.984H294.318C296.27 50.984 297.806 51.368 298.926 52.136C300.078 52.904 300.718 54.2 300.846 56.024C301.006 57.688 301.07 59.448 301.038 61.304C301.006 63.16 300.862 64.984 300.606 66.776C301.662 66.488 302.574 65.992 303.342 65.288C304.142 64.584 304.542 63.544 304.542 62.168V54.68C304.542 53.368 304.974 52.28 305.838 51.416C306.702 50.552 307.886 50.12 309.39 50.12C310.862 50.12 312.014 50.552 312.846 51.416C313.71 52.28 314.142 53.416 314.142 54.824V75.992C314.142 77.272 313.694 78.344 312.798 79.208C311.934 80.072 310.798 80.504 309.39 80.504C307.982 80.504 306.814 80.072 305.886 79.208C304.99 78.344 304.542 77.272 304.542 75.992V67.832H303.726C302.926 69.784 301.822 71.304 300.414 72.392C299.038 73.448 297.358 74.184 295.374 74.6L294.366 74.84C294.846 76.504 294.638 77.848 293.742 78.872C292.846 79.896 291.582 80.424 289.95 80.456C290.11 80.68 290.222 80.92 290.286 81.176C290.382 81.432 290.446 81.688 290.478 81.944C290.542 82.328 290.67 82.632 290.862 82.856C291.054 83.048 291.502 83.144 292.206 83.144H309.534C311.038 83.144 312.222 83.528 313.086 84.296C313.95 85.032 314.382 86.248 314.382 87.944C314.382 89.544 313.95 90.696 313.086 91.4C312.222 92.104 311.038 92.456 309.534 92.456H291.342Z" fill="white"/>
<path d="M253.864 55.352C253.864 54.04 254.296 52.984 255.16 52.184C256.024 51.352 257.192 50.936 258.664 50.936C260.104 50.936 261.224 51.352 262.024 52.184C262.856 53.016 263.272 54.104 263.272 55.448V71.048C263.272 72.264 262.84 73.288 261.976 74.12C261.144 74.952 260.04 75.368 258.664 75.368C257.288 75.368 256.136 74.952 255.208 74.12C254.312 73.288 253.864 72.264 253.864 71.048V55.352ZM227.704 67.784C228.248 66.568 228.76 65.448 229.24 64.424C229.72 63.4 230.264 62.248 230.872 60.968C231.48 59.688 232.232 58.072 233.128 56.12C233.736 54.776 234.424 53.672 235.192 52.808C235.992 51.912 237.224 51.496 238.888 51.56C239.816 51.56 240.68 51.752 241.48 52.136C242.28 52.52 242.905 53.096 243.353 53.864C243.833 54.632 244.008 55.624 243.881 56.84C243.753 58.504 243.448 59.768 242.968 60.632C242.52 61.464 242.296 61.88 242.296 61.88C243.704 61.688 245.032 61.832 246.28 62.312C247.56 62.76 248.616 63.48 249.448 64.472C250.28 65.464 250.744 66.696 250.84 68.168C251 70.152 250.6 71.656 249.64 72.68C248.68 73.672 247.384 74.168 245.752 74.168C244.344 74.168 243.192 73.752 242.296 72.92C241.4 72.088 240.952 71.016 240.952 69.704C240.952 68.648 241.08 67.832 241.336 67.256C241.592 66.648 241.784 66.04 241.912 65.432C242.104 64.632 241.88 64.168 241.24 64.04C240.568 63.848 240.056 64.232 239.704 65.192C239.192 66.536 238.664 67.752 238.12 68.84C237.576 69.928 237.032 71.032 236.488 72.152C235.752 73.656 234.776 74.584 233.56 74.936C232.344 75.256 231.112 75.112 229.864 74.504C228.68 73.896 227.848 73.016 227.368 71.864C226.888 70.68 227 69.32 227.704 67.784ZM247.72 92.648C243.848 92.648 240.808 92.248 238.6 91.448C236.392 90.68 234.824 89.64 233.896 88.328C233 87.016 232.552 85.576 232.552 84.008C232.552 82.728 232.76 81.544 233.176 80.456C233.592 79.336 234.344 78.376 235.432 77.576C236.52 76.776 238.056 76.184 240.04 75.8C242.024 75.384 244.584 75.224 247.72 75.32C250.792 75.416 253.304 75.688 255.256 76.136C257.24 76.584 258.792 77.176 259.912 77.912C261.032 78.648 261.8 79.528 262.216 80.552C262.664 81.576 262.888 82.728 262.888 84.008C262.888 85.576 262.424 87.016 261.496 88.328C260.6 89.64 259.049 90.68 256.841 91.448C254.665 92.248 251.624 92.648 247.72 92.648ZM240.952 80.504C240.952 80.792 241.112 81.048 241.432 81.272C241.784 81.464 242.425 81.608 243.353 81.704C244.281 81.8 245.624 81.848 247.384 81.848C249.976 81.848 251.752 81.736 252.712 81.512C253.672 81.288 254.152 80.952 254.152 80.504C254.152 79.96 253.672 79.608 252.712 79.448C251.752 79.256 249.976 79.16 247.384 79.16C245.624 79.16 244.281 79.208 243.353 79.304C242.425 79.368 241.784 79.496 241.432 79.688C241.112 79.88 240.952 80.152 240.952 80.504Z" fill="white"/>
<path d="M210.276 79.208C209.156 79.208 208.228 78.888 207.492 78.248C206.756 77.576 206.388 76.744 206.388 75.752V54.824C206.388 53.8 206.74 52.968 207.444 52.328C208.148 51.656 209.092 51.32 210.276 51.32C211.396 51.32 212.292 51.656 212.964 52.328C213.636 52.968 213.972 53.832 213.972 54.92V63.176H214.644C215.06 63.176 215.268 62.984 215.268 62.6V54.632C215.268 53.544 215.62 52.664 216.324 51.992C217.028 51.288 218.02 50.936 219.3 50.936C220.484 50.936 221.412 51.288 222.084 51.992C222.788 52.664 223.14 53.56 223.14 54.68V75.848C223.14 76.904 222.772 77.784 222.036 78.488C221.332 79.16 220.42 79.496 219.3 79.496C218.116 79.496 217.14 79.16 216.372 78.488C215.636 77.784 215.268 76.904 215.268 75.848V66.2H213.972V75.752C213.972 76.744 213.62 77.576 212.916 78.248C212.244 78.888 211.364 79.208 210.276 79.208ZM186.852 56.84C186.852 55.528 187.172 54.408 187.812 53.48C188.484 52.552 189.476 52.088 190.788 52.088H199.476C201.14 52.088 202.276 52.552 202.884 53.48C203.492 54.408 203.796 55.512 203.796 56.792C203.796 57.624 203.668 58.424 203.412 59.192C203.156 59.96 202.708 60.584 202.068 61.064C201.46 61.512 200.596 61.736 199.476 61.736H193.812C193.268 61.736 192.852 61.832 192.564 62.024C192.308 62.184 192.276 62.536 192.468 63.08L192.66 63.752C192.884 64.424 193.188 64.824 193.572 64.952C193.956 65.048 194.66 65.096 195.684 65.096H200.004C203.396 65.096 205.092 66.84 205.092 70.328C205.092 72.024 204.66 73.352 203.796 74.312C202.964 75.272 201.7 75.752 200.004 75.752H196.5C193.684 75.752 191.492 75.176 189.924 74.024C188.388 72.84 187.524 71.24 187.332 69.224C187.204 67.784 187.348 66.6 187.764 65.672C188.212 64.744 188.74 64.04 189.348 63.56C189.956 63.08 190.436 62.808 190.788 62.744L190.308 61.784C189.22 61.784 188.372 61.304 187.764 60.344C187.156 59.352 186.852 58.184 186.852 56.84ZM191.892 84.344C191.86 83.8 191.844 83.384 191.844 83.096C191.876 82.776 191.924 82.184 191.988 81.32C192.084 79.848 192.516 78.792 193.284 78.152C194.052 77.512 195.124 77.192 196.5 77.192C199.412 77.192 200.868 78.296 200.868 80.504C200.868 81.016 200.996 81.448 201.252 81.8C201.54 82.12 202.228 82.28 203.316 82.28H217.764C219.332 82.28 220.548 82.696 221.412 83.528C222.276 84.328 222.708 85.56 222.708 87.224C222.708 88.792 222.276 90.008 221.412 90.872C220.548 91.736 219.332 92.168 217.764 92.168H200.868C198.948 92.168 197.332 91.928 196.02 91.448C194.708 91 193.7 90.2 192.996 89.048C192.324 87.928 191.956 86.36 191.892 84.344Z" fill="white"/>
<path d="M135.598 81.368C135.662 79.832 136.142 78.664 137.038 77.864C137.966 77.064 139.102 76.664 140.446 76.664H150.574C151.79 76.664 153.038 76.584 154.318 76.424C155.63 76.264 156.83 75.944 157.918 75.464C159.038 74.984 159.934 74.296 160.606 73.4C161.278 72.504 161.614 71.336 161.614 69.896V54.728C161.614 53.416 162.046 52.36 162.91 51.56C163.774 50.728 164.942 50.312 166.414 50.312C167.854 50.312 168.974 50.728 169.774 51.56C170.606 52.392 171.022 53.48 171.022 54.824V87.8C171.022 89.048 170.59 90.088 169.726 90.92C168.894 91.752 167.79 92.168 166.414 92.168C165.038 92.168 163.886 91.752 162.958 90.92C162.062 90.088 161.614 89.048 161.614 87.8V77.528H160.75C160.27 79.416 159.39 81.016 158.11 82.328C156.862 83.64 155.374 84.664 153.646 85.4C151.95 86.136 150.19 86.584 148.366 86.744C146.958 86.872 145.55 86.936 144.142 86.936C142.734 86.904 141.534 86.824 140.542 86.696C138.91 86.472 137.663 85.912 136.799 85.016C135.967 84.088 135.566 82.872 135.598 81.368ZM147.55 75.128C145.726 75.128 144.062 74.904 142.558 74.456C141.054 73.976 139.839 73.256 138.91 72.296C137.982 71.336 137.455 70.12 137.327 68.648C137.199 67.048 137.502 65.736 138.238 64.712C138.974 63.656 139.742 62.984 140.542 62.696L140.206 61.736C139.63 61.672 139.054 61.416 138.478 60.968C137.934 60.488 137.582 59.816 137.422 58.952C137.262 57.992 137.358 57.16 137.71 56.456C138.062 55.752 138.494 55.192 139.006 54.776C139.742 54.2 140.798 53.704 142.174 53.288C143.582 52.872 145.358 52.664 147.502 52.664C149.742 52.664 151.726 53.048 153.454 53.816C155.214 54.552 156.607 55.768 157.631 57.464C158.654 59.128 159.166 61.336 159.166 64.088C159.166 67.928 158.174 70.728 156.19 72.488C154.238 74.248 151.358 75.128 147.55 75.128ZM141.502 62.984C141.502 63.688 141.838 64.168 142.51 64.424C143.182 64.648 144.334 64.76 145.966 64.76C147.694 64.76 148.878 64.648 149.518 64.424C150.19 64.168 150.526 63.688 150.526 62.984C150.526 62.312 150.19 61.864 149.518 61.64C148.878 61.416 147.694 61.304 145.966 61.304C144.334 61.304 143.182 61.416 142.51 61.64C141.838 61.864 141.502 62.312 141.502 62.984Z" fill="white"/>
<path d="M124.602 75.224C123.226 75.224 122.074 74.808 121.146 73.976C120.25 73.144 119.802 72.12 119.802 70.904V69.56H115.146C114.282 71.48 112.97 72.888 111.21 73.784C109.45 74.648 107.306 75.08 104.778 75.08C103.05 75.08 101.434 74.84 99.93 74.36C98.458 73.88 97.242 73.144 96.282 72.152C95.354 71.16 94.81 69.896 94.65 68.36C94.522 67.08 94.634 66.008 94.986 65.144C95.338 64.28 95.802 63.608 96.378 63.128C96.954 62.616 97.514 62.312 98.058 62.216L97.626 61.16C97.018 61.064 96.362 60.728 95.658 60.152C94.986 59.544 94.65 58.568 94.65 57.224C94.65 55.592 95.466 54.28 97.098 53.288C98.73 52.264 101.226 51.752 104.586 51.752C107.05 51.752 109.194 52.184 111.018 53.048C112.842 53.912 114.202 55.32 115.098 57.272H118.602C119.082 57.272 119.402 57.192 119.562 57.032C119.722 56.84 119.802 56.456 119.802 55.88V55.352C119.802 54.04 120.234 52.984 121.098 52.184C121.962 51.352 123.13 50.936 124.602 50.936C126.042 50.936 127.162 51.352 127.962 52.184C128.794 53.016 129.21 54.104 129.21 55.448V70.904C129.21 72.12 128.778 73.144 127.914 73.976C127.082 74.808 125.978 75.224 124.602 75.224ZM98.97 62.984C98.97 63.752 99.306 64.28 99.978 64.568C100.65 64.856 101.914 65 103.77 65C105.69 65 106.986 64.872 107.658 64.616C108.33 64.328 108.666 63.8 108.666 63.032C108.666 62.328 108.33 61.816 107.658 61.496C106.986 61.176 105.69 61.016 103.77 61.016C101.914 61.016 100.65 61.176 99.978 61.496C99.306 61.784 98.97 62.28 98.97 62.984ZM118.602 64.856C119.082 64.856 119.402 64.76 119.562 64.568C119.722 64.376 119.802 63.992 119.802 63.416V61.976H116.25V64.856H118.602ZM99.402 80.84C99.402 79.4 99.818 78.28 100.65 77.48C101.514 76.68 102.714 76.28 104.25 76.28H123.162C125.146 76.28 126.634 76.776 127.626 77.768C128.618 78.728 129.114 80.136 129.114 81.992C129.114 83.176 129.082 84.2 129.018 85.064C128.986 85.896 128.89 86.92 128.73 88.136C128.538 89.512 128.074 90.584 127.338 91.352C126.602 92.12 125.418 92.456 123.786 92.36C122.634 92.296 121.754 92.04 121.146 91.592C120.538 91.176 120.122 90.664 119.898 90.056C119.706 89.48 119.594 88.92 119.562 88.376C119.53 87.256 119.354 86.52 119.034 86.168C118.746 85.784 118.17 85.592 117.306 85.592H104.298C102.73 85.592 101.514 85.16 100.65 84.296C99.818 83.432 99.402 82.28 99.402 80.84Z" fill="white"/>
<path d="M81.1095 71.624C79.6375 71.592 78.5335 71.176 77.7975 70.376C77.0615 69.576 76.7255 68.616 76.7895 67.496C76.8535 66.76 77.0135 66.184 77.2695 65.768C77.5255 65.352 77.7655 64.968 77.9895 64.616C78.2455 64.264 78.3735 63.816 78.3735 63.272C78.3735 62.696 78.2135 62.28 77.8935 62.024C77.6055 61.768 77.0455 61.64 76.2135 61.64H59.7495C58.2135 61.64 56.9815 61.144 56.0535 60.152C55.1575 59.16 54.7095 57.976 54.7095 56.6C54.7095 55.192 55.1575 54.072 56.0535 53.24C56.9815 52.376 58.2135 51.944 59.7495 51.944H79.1895C81.6855 51.944 83.4295 52.488 84.4215 53.576C85.4135 54.632 86.0055 56.216 86.1975 58.328C86.3575 59.704 86.4215 61.048 86.3895 62.36C86.3575 63.672 86.2135 65.24 85.9575 67.064C85.7975 68.344 85.3975 69.432 84.7575 70.328C84.1175 71.224 82.9015 71.656 81.1095 71.624ZM51.3015 77.432C51.3015 76.024 51.7335 74.92 52.5975 74.12C53.4935 73.32 54.5815 72.92 55.8615 72.92H86.7255C87.9415 72.92 88.9655 73.352 89.7975 74.216C90.6295 75.048 91.0455 76.12 91.0455 77.432C91.0455 78.744 90.6295 79.832 89.7975 80.696C88.9655 81.528 87.9415 81.944 86.7255 81.944H73.9575C73.5095 81.944 73.2215 82.104 73.0935 82.424C72.9655 82.712 73.0775 82.984 73.4295 83.24C73.8455 83.56 74.3095 84.04 74.8215 84.68C75.3335 85.288 75.5895 86.168 75.5895 87.32C75.5895 88.696 75.1575 89.848 74.2935 90.776C73.4615 91.704 72.1015 92.168 70.2135 92.168C68.6455 92.168 67.3495 91.704 66.3255 90.776C65.3015 89.848 64.7895 88.696 64.7895 87.32C64.7895 86.392 64.9335 85.64 65.2215 85.064C65.5415 84.488 65.8935 84.04 66.2775 83.72C66.6935 83.368 67.0455 83.128 67.3335 83C67.6535 82.872 67.8135 82.808 67.8135 82.808L67.2855 81.944H55.7655C54.5495 81.944 53.4935 81.544 52.5975 80.744C51.7335 79.944 51.3015 78.84 51.3015 77.432Z" fill="white"/>
<path d="M27.984 55.4C27.984 54.088 28.416 52.984 29.28 52.088C30.144 51.192 31.312 50.744 32.784 50.744C34.224 50.744 35.344 51.208 36.144 52.136C36.976 53.032 37.392 54.152 37.392 55.496V87.848C37.392 89.064 36.96 90.088 36.096 90.92C35.264 91.752 34.16 92.168 32.784 92.168C31.408 92.168 30.256 91.752 29.328 90.92C28.432 90.088 27.984 89.064 27.984 87.848V55.4ZM2.40001 74.456C2.36801 72.536 2.62401 70.952 3.16801 69.704C3.71201 68.456 4.36801 67.512 5.13601 66.872C5.93601 66.2 6.65601 65.768 7.29601 65.576L6.81601 64.52C6.01601 64.52 5.23201 64.184 4.46401 63.512C3.69601 62.808 3.28001 61.832 3.21601 60.584C3.08801 58.6 3.82401 56.984 5.42401 55.736C7.05601 54.456 9.53601 53.816 12.864 53.816C16.608 53.816 19.6 55.08 21.84 57.608C24.112 60.104 25.248 64.008 25.248 69.32C25.248 72.968 24.752 75.944 23.76 78.248C22.8 80.52 21.44 82.2 19.68 83.288C17.92 84.344 15.872 84.872 13.536 84.872C11.712 84.872 9.95201 84.504 8.25601 83.768C6.59201 83.032 5.21601 81.896 4.12801 80.36C3.07201 78.824 2.49601 76.856 2.40001 74.456ZM12.384 74.024C13.728 74.024 14.72 73.64 15.36 72.872C16 72.072 16.32 70.68 16.32 68.696C16.32 66.616 15.984 65.192 15.312 64.424C14.64 63.656 13.648 63.272 12.336 63.272C10.96 63.272 9.95201 63.656 9.31201 64.424C8.70401 65.192 8.40001 66.616 8.40001 68.696C8.40001 70.648 8.72001 72.024 9.36001 72.824C10 73.624 11.008 74.024 12.384 74.024Z" fill="white"/>
</svg>
